<?xml version="1.0" standalone="no"?>
<!DOCTYPE svg PUBLIC "-//W3C//DTD SVG 20010904//EN"
 "http://www.w3.org/TR/2001/REC-SVG-20010904/DTD/svg10.dtd">
<svg version="1.0" xmlns="http://www.w3.org/2000/svg"
 width="1140.000000pt" height="409.000000pt" viewBox="0 0 1140.000000 409.000000"
 preserveAspectRatio="xMidYMid meet">

<g transform="translate(0.000000,409.000000) scale(0.100000,-0.100000)"
fill="#000000" stroke="none">
<path d="M1597 2509 c-58 -36 -69 -68 -40 -118 18 -32 19 -38 6 -50 -13 -12
-14 -33 -9 -120 4 -58 6 -142 6 -186 0 -44 0 -96 0 -116 0 -19 -4 -46 -9 -60
l-10 -24 0 27 c-1 41 -39 105 -74 127 -47 28 -240 91 -284 91 -87 2 -240 9
-273 14 -19 3 -58 5 -86 5 -116 2 -154 113 -65 188 14 12 34 22 43 23 9 0 20
5 23 10 16 26 188 83 223 73 10 -2 24 3 31 11 17 21 28 20 57 -3 35 -28 118
-37 149 -17 13 9 35 16 47 16 26 1 58 22 58 38 0 7 -12 14 -27 17 -16 4 -35
10 -43 14 -44 23 -129 33 -225 28 -231 -14 -497 -137 -560 -257 -59 -114 6
-237 145 -272 115 -30 112 -29 131 -12 18 16 20 16 34 -2 11 -16 17 -17 33 -7
12 7 23 8 29 2 5 -5 59 -11 120 -13 111 -4 169 -15 234 -43 31 -13 39 -24 53
-70 16 -50 16 -58 1 -109 -9 -31 -14 -58 -11 -61 3 -3 -10 -36 -29 -73 -45
-89 -104 -141 -187 -164 -35 -10 -73 -22 -86 -27 -13 -5 -72 -9 -133 -9 -149
0 -253 36 -285 99 -6 12 -15 22 -20 22 -13 0 -21 19 -29 66 -8 50 -21 62 -43
40 -14 -15 -16 -14 -26 5 -6 12 -19 26 -29 32 -25 16 -47 -1 -80 -61 l-27 -51
40 -53 c40 -54 114 -119 134 -119 6 0 25 -7 41 -16 101 -53 338 -78 477 -48
150 31 289 86 301 119 4 8 14 15 24 16 32 1 125 122 160 206 18 43 32 87 33
98 1 19 1 19 11 2 6 -9 7 -27 4 -38 -4 -11 -1 -26 5 -34 10 -11 10 -18 1 -29
-18 -22 -17 -124 1 -142 14 -14 22 -13 87 8 107 34 114 44 107 137 -4 42 -8
132 -10 201 -2 69 -4 145 -6 170 -1 25 1 143 5 263 3 119 3 222 0 227 -4 6
-15 4 -29 -5 -22 -14 -24 -14 -29 4 -10 38 -39 42 -90 10z m58 -222 c-3 -117
-8 -236 -10 -265 -2 -28 1 -55 6 -58 12 -7 11 -147 -1 -199 -6 -26 -5 -42 1
-46 13 -8 24 -118 16 -151 -6 -24 -73 -65 -85 -53 -4 3 -5 26 -4 51 1 34 8 50
24 64 23 19 23 19 3 33 -19 14 -20 24 -18 164 4 242 3 364 -3 428 -5 52 -3 62
15 79 l20 18 -24 33 c-35 45 -32 68 13 97 20 14 41 23 45 21 4 -3 5 -100 2
-216z m-399 172 c49 -13 52 -18 25 -43 -26 -23 -111 -14 -137 15 -20 23 -57
25 -74 4 -7 -8 -16 -12 -21 -10 -4 3 -45 -3 -90 -15 -44 -11 -85 -18 -89 -15
-5 3 -14 0 -22 -7 -7 -7 -53 -33 -101 -57 -100 -50 -127 -80 -127 -139 0 -33
6 -45 31 -66 17 -14 37 -26 44 -26 7 0 27 -12 44 -26 24 -20 34 -24 45 -15 19
16 120 11 154 -6 17 -9 28 -11 30 -4 2 7 36 11 83 11 65 0 79 -3 79 -16 0 -10
6 -14 18 -10 9 2 27 7 39 11 47 13 240 -69 230 -98 -2 -6 4 -18 14 -28 19 -19
33 -114 24 -162 -3 -17 -20 -69 -36 -113 -24 -63 -44 -96 -91 -148 -34 -38
-68 -66 -79 -66 -10 0 -19 -6 -19 -13 0 -23 -92 -65 -190 -87 -78 -18 -115
-20 -204 -16 -60 4 -115 11 -122 17 -7 6 -18 8 -23 4 -17 -10 -88 14 -120 40
-18 16 -31 21 -33 14 -8 -25 -91 36 -144 105 l-32 43 24 41 c36 61 47 57 59
-21 8 -62 81 -127 185 -168 78 -30 97 -33 223 -37 82 -3 142 0 150 6 6 5 29
13 51 16 105 19 201 90 238 176 11 25 26 49 34 53 8 5 12 18 10 32 -2 13 2 49
10 80 14 51 13 62 -1 106 -19 57 -15 69 28 69 28 1 30 2 14 11 -11 6 -32 8
-49 5 -19 -4 -42 1 -67 13 -43 22 -187 54 -202 45 -5 -3 -16 0 -24 6 -11 9
-19 9 -28 2 -7 -6 -31 -8 -54 -5 -30 4 -44 12 -54 30 l-13 25 -18 -22 c-11
-14 -18 -17 -18 -9 0 8 -5 21 -10 29 -9 13 -15 10 -38 -17 l-27 -33 -72 20
c-90 24 -106 32 -136 73 -83 111 -5 239 199 323 108 46 163 62 239 74 78 12
192 11 241 -1z m441 -111 c-3 -8 -6 -5 -6 6 -1 11 2 17 5 13 3 -3 4 -12 1 -19z
m-140 -570 c-3 -7 -5 -2 -5 12 0 14 2 19 5 13 2 -7 2 -19 0 -25z"/>
<path d="M5370 2502 c-60 -29 -78 -64 -45 -88 23 -17 33 -74 40 -229 3 -71 9
-152 12 -180 13 -103 2 -525 -16 -613 -13 -63 -2 -92 32 -92 32 0 150 40 162
54 6 7 18 15 28 19 15 6 17 13 11 39 -4 18 -6 52 -5 76 1 23 -2 42 -6 42 -7 0
-9 261 -4 496 l1 62 58 7 c167 20 421 120 406 160 -4 9 3 16 21 21 43 11 61
87 28 116 -31 27 -203 80 -338 104 -11 2 -57 10 -102 18 -126 24 -217 19 -283
-12z m262 -13 c43 -6 83 -18 89 -25 7 -9 16 -11 23 -5 7 6 34 4 71 -5 194 -47
228 -72 194 -148 -6 -13 -22 -27 -35 -30 -13 -4 -24 -15 -26 -28 -2 -15 -22
-31 -66 -53 -63 -33 -107 -45 -242 -70 -41 -7 -92 -16 -112 -20 l-38 -8 -1
-66 c-4 -186 0 -501 5 -510 4 -5 6 -27 5 -48 -1 -21 1 -50 5 -65 7 -23 4 -29
-15 -38 -13 -6 -35 -17 -49 -25 -14 -8 -33 -15 -42 -15 -18 0 -18 16 -1 90 6
27 14 103 14 135 0 11 0 49 0 85 3 179 1 331 -5 380 -3 30 -7 109 -9 175 -1
66 -5 125 -9 130 -3 6 -9 31 -12 58 -5 31 -12 47 -22 47 -31 0 -12 27 33 47
55 24 134 28 245 12z"/>
<path d="M5570 2463 c-10 -16 -25 -23 -47 -23 -17 0 -35 -5 -38 -10 -6 -9 -10
-190 -5 -215 1 -5 1 -20 0 -32 -1 -18 4 -23 23 -23 14 0 27 -4 29 -9 2 -6 19
-6 43 -1 22 5 72 14 110 20 91 15 164 39 193 64 12 11 28 38 34 59 11 38 11
41 -17 63 -16 13 -42 26 -57 30 -16 3 -28 9 -28 14 0 5 -20 8 -45 8 -25 0 -52
6 -60 12 -8 6 -23 9 -34 5 -33 -10 -67 4 -77 33 l-10 27 -14 -22z m99 -73 c37
-6 78 -12 91 -14 49 -5 130 -42 130 -58 0 -36 -38 -73 -91 -90 -134 -42 -212
-49 -224 -20 -6 16 -9 92 -6 171 1 26 4 32 17 27 9 -3 46 -11 83 -16z"/>
<path d="M6650 2510 c-65 -9 -113 -29 -195 -79 -77 -46 -98 -63 -167 -134
-140 -142 -226 -370 -199 -528 21 -123 28 -147 59 -198 18 -28 32 -55 32 -59
0 -12 54 -62 66 -62 6 0 17 -11 24 -25 12 -23 99 -85 118 -85 5 0 27 -9 50
-20 23 -11 74 -23 114 -26 167 -14 518 120 655 249 112 105 170 210 183 327 6
50 4 71 -8 92 -12 21 -13 30 -3 41 9 12 9 31 1 84 -6 37 -15 77 -19 88 -36 87
-46 104 -67 116 -13 7 -24 20 -24 29 0 20 -45 65 -80 79 -14 6 -32 15 -40 20
-23 14 -79 36 -140 56 -30 10 -62 21 -71 26 -25 12 -226 19 -289 9z m275 -39
c5 -5 25 -12 44 -16 42 -9 158 -69 188 -97 13 -12 23 -29 23 -38 0 -9 11 -22
24 -29 26 -14 60 -77 50 -92 -3 -6 0 -18 8 -27 20 -23 41 -143 28 -156 -15
-15 -12 -52 4 -65 21 -18 2 -147 -31 -211 -7 -14 -13 -30 -13 -35 0 -25 -153
-185 -212 -222 -167 -105 -366 -171 -486 -160 -36 4 -70 11 -76 17 -5 5 -18
10 -28 10 -11 0 -21 12 -27 33 -9 30 -10 30 -16 10 -9 -28 -7 -28 -60 2 -24
15 -48 38 -55 55 -7 17 -19 30 -28 30 -16 0 -52 28 -52 40 0 4 -16 34 -35 66
-25 41 -34 66 -30 82 3 13 0 29 -8 37 -31 31 -32 225 -1 225 16 0 18 12 4 26
-19 19 62 202 114 257 14 15 26 31 26 35 0 9 63 72 72 72 5 0 22 14 38 30 44
45 211 128 268 133 67 7 254 -2 267 -12z m418 -556 c-3 -9 -8 -14 -10 -11 -3
3 -2 9 2 15 9 16 15 13 8 -4z m-18 -155 c-3 -5 -11 -10 -16 -10 -6 0 -7 5 -4
10 3 6 11 10 16 10 6 0 7 -4 4 -10z"/>
<path d="M6645 2431 c-69 -7 -146 -34 -175 -62 -8 -8 -38 -31 -66 -53 -47 -35
-95 -89 -138 -158 -9 -14 -29 -61 -44 -105 -25 -71 -26 -86 -20 -173 8 -113
17 -168 29 -176 5 -3 9 -14 9 -25 0 -10 4 -19 8 -19 13 0 43 -58 40 -77 -2
-11 5 -19 17 -21 30 -6 69 -41 75 -65 3 -12 15 -23 25 -25 11 -2 25 -10 31
-18 20 -25 118 -63 192 -73 74 -10 104 -5 207 31 17 5 40 12 53 15 12 3 22 11
22 17 0 7 18 22 40 35 22 12 40 19 40 15 0 -6 56 43 111 99 35 35 89 128 89
152 0 14 3 15 14 6 10 -9 16 -8 26 4 10 12 10 15 -4 15 -12 0 -16 9 -16 35 0
29 4 35 23 36 19 0 20 2 6 11 -15 10 -15 14 3 44 18 31 18 33 1 38 -19 6 -43
49 -43 77 0 40 -34 148 -61 192 -16 26 -29 54 -29 62 0 9 -11 20 -24 25 -13 5
-27 13 -30 19 -12 18 -96 70 -128 79 -17 4 -36 17 -42 27 -6 11 -12 22 -13 24
-2 2 -9 -2 -18 -9 -8 -7 -25 -10 -37 -6 -41 12 -101 14 -173 7z m185 -40 c119
-32 216 -92 257 -157 50 -81 83 -172 83 -234 0 -16 4 -31 9 -34 5 -3 7 -15 4
-27 -4 -15 0 -22 16 -26 21 -5 21 -6 3 -19 -14 -10 -20 -26 -20 -58 -1 -25 -5
-53 -10 -63 -6 -10 -20 -42 -33 -71 -20 -47 -50 -82 -133 -156 -16 -14 -33
-26 -39 -26 -5 0 -29 -13 -53 -30 -24 -16 -53 -34 -65 -40 -39 -22 -134 -42
-187 -41 -55 2 -132 26 -132 43 0 5 -13 14 -30 19 -18 7 -30 18 -30 28 0 20
-59 67 -77 63 -8 -2 -13 7 -13 20 0 13 -11 39 -24 58 -12 19 -29 53 -36 75 -7
22 -16 50 -21 63 -13 33 -11 203 2 243 6 19 17 48 25 66 8 17 14 34 14 37 0
14 69 112 100 143 18 18 62 54 99 80 53 38 77 49 121 54 61 8 118 4 170 -10z"/>
<path d="M4770 2503 c-125 -20 -252 -60 -337 -106 -46 -25 -193 -149 -193
-163 0 -8 -6 -14 -13 -14 -23 0 -106 -140 -133 -224 -23 -73 -25 -92 -21 -211
5 -130 25 -212 62 -255 7 -8 16 -25 19 -37 8 -26 146 -150 183 -164 81 -31
283 -31 463 -1 69 12 175 29 235 38 61 9 119 20 130 25 11 5 38 15 60 22 39
12 40 13 37 57 -1 25 -5 52 -9 60 -3 8 -5 23 -4 33 1 10 -8 26 -21 37 -13 11
-17 19 -10 20 7 0 10 5 7 10 -4 6 0 22 9 35 12 18 16 49 16 120 l0 95 -34 0
c-21 0 -36 6 -40 15 -4 12 -29 15 -133 14 -116 0 -130 -2 -150 -21 -50 -47
-22 -78 66 -75 39 2 66 -2 72 -9 5 -7 11 -60 13 -118 2 -83 6 -110 20 -125 15
-16 15 -19 1 -24 -8 -4 -15 -17 -15 -30 0 -14 -6 -29 -12 -34 -26 -21 -263
-55 -398 -57 -107 -3 -140 0 -160 12 -45 28 -111 96 -125 130 -8 17 -21 32
-29 32 -9 0 -14 9 -14 23 4 57 -2 77 -21 77 -11 0 -23 5 -26 10 -3 6 3 10 14
10 25 0 27 17 6 47 -8 12 -11 24 -7 27 12 7 12 95 0 102 -7 4 -7 9 0 13 6 4
16 29 23 56 18 74 51 158 69 175 9 8 28 33 43 56 15 23 46 56 69 75 23 19 48
42 57 52 8 9 20 17 26 17 6 0 27 11 48 26 30 20 140 52 192 56 20 1 101 -12
147 -23 40 -11 50 -10 72 4 14 9 35 17 47 17 23 0 84 39 74 48 -3 3 -18 8 -33
10 -14 2 -32 8 -38 13 -25 21 -187 37 -207 21 -8 -7 -18 -7 -27 -2 -15 10 -26
10 -70 3z m68 -35 c9 -9 17 -9 36 1 18 10 43 11 93 5 37 -4 71 -8 75 -8 21 -3
15 -17 -17 -36 -32 -20 -41 -21 -73 -12 -21 6 -59 14 -87 17 -27 4 -53 9 -57
11 -5 3 -15 1 -22 -5 -7 -6 -37 -12 -67 -15 -59 -4 -137 -32 -199 -71 -22 -14
-44 -25 -48 -25 -14 0 -126 -110 -158 -155 -16 -22 -34 -44 -40 -50 -13 -12
-54 -112 -54 -133 0 -23 -23 -86 -35 -94 -6 -5 -6 -11 2 -16 13 -8 11 -62 -2
-94 -4 -11 -1 -24 9 -33 22 -23 20 -45 -5 -45 -11 0 -17 -4 -14 -10 3 -5 15
-10 26 -10 19 0 25 -22 20 -77 -1 -13 4 -23 10 -23 14 0 38 -30 39 -49 1 -40
224 -193 247 -170 6 6 66 12 134 14 68 1 150 8 182 14 33 7 65 10 72 7 7 -2
16 -1 21 4 5 5 36 13 68 19 33 6 67 18 76 26 9 8 22 15 28 15 17 0 15 18 -4
28 -15 8 -14 11 5 24 l21 15 -21 28 c-18 22 -23 44 -26 111 -4 82 -4 83 24 98
l28 15 -32 7 c-18 3 -33 13 -33 20 0 21 -36 30 -102 28 -32 -2 -58 1 -58 5 0
22 35 29 143 30 l117 1 0 -93 c0 -61 -5 -99 -13 -112 -24 -35 -26 -63 -6 -81
11 -10 19 -25 18 -33 -1 -9 1 -23 4 -31 12 -31 16 -86 8 -99 -5 -8 -53 -21
-117 -31 -60 -10 -172 -28 -249 -40 -137 -23 -324 -30 -408 -17 -45 7 -103 41
-117 68 -6 10 -16 19 -23 19 -22 0 -80 67 -74 84 4 10 -1 20 -13 26 -10 5 -28
36 -40 67 -26 70 -39 211 -20 223 9 6 9 13 1 28 -15 28 -14 49 4 110 10 32 21
52 30 52 18 0 20 17 3 22 -21 7 73 148 98 148 8 0 14 6 14 14 0 31 189 184
212 170 6 -4 16 0 22 8 18 25 68 46 162 67 146 33 166 35 182 19z"/>
<path d="M8542 2470 c-40 -29 -62 -73 -62 -127 0 -12 -6 -55 -14 -95 -8 -40
-20 -102 -26 -138 -6 -36 -22 -99 -36 -140 -13 -41 -30 -97 -37 -125 l-14 -50
-16 53 c-9 29 -23 60 -32 69 -9 9 -14 24 -12 34 4 16 -7 38 -45 91 -10 14 -10
22 -1 36 15 25 0 102 -33 168 -14 27 -24 55 -22 61 2 6 -14 32 -35 57 l-38 46
33 19 c26 17 29 21 15 27 -9 3 -24 4 -32 0 -9 -3 -24 3 -35 14 -27 27 -46 25
-91 -6 -36 -25 -65 -76 -53 -95 3 -5 0 -17 -6 -28 -8 -16 -6 -24 10 -39 l21
-19 -26 -17 c-18 -12 -25 -25 -25 -49 0 -17 -10 -66 -21 -107 -12 -41 -34
-120 -49 -175 -33 -122 -63 -215 -70 -215 -3 0 -16 9 -30 20 -20 15 -21 20 -8
20 28 0 30 17 9 83 -11 34 -30 95 -41 135 -12 40 -28 76 -36 79 -8 3 -13 16
-12 32 1 15 -2 33 -7 41 -5 8 -10 36 -11 62 -3 49 -23 108 -37 108 -4 0 -7 10
-5 23 4 32 -12 147 -20 147 -4 0 -17 -7 -29 -15 -19 -14 -21 -13 -27 10 -5 19
-13 25 -34 25 -40 0 -132 -73 -132 -104 0 -15 37 -116 55 -147 8 -14 12 -28 9
-31 -5 -5 18 -80 41 -133 7 -16 21 -61 31 -98 10 -38 23 -71 30 -74 6 -2 10
-12 7 -21 -2 -9 4 -35 13 -57 10 -22 19 -45 20 -52 8 -43 49 -175 65 -209 10
-23 19 -46 19 -53 0 -6 9 -30 19 -54 11 -23 22 -64 26 -90 8 -60 35 -78 83
-53 17 9 38 16 46 16 52 0 94 49 78 91 -7 17 -4 50 9 112 10 48 21 92 24 97 3
5 7 27 9 50 2 22 9 46 14 53 5 7 22 62 36 122 43 180 48 195 60 195 7 0 17
-21 23 -47 10 -44 68 -241 94 -322 7 -19 17 -60 24 -90 33 -144 78 -253 107
-259 10 -2 33 8 52 23 22 17 35 22 38 14 3 -9 10 -8 26 2 22 14 29 49 24 121
-1 15 3 30 8 33 6 3 10 19 10 34 0 15 7 50 15 78 8 28 17 68 19 90 1 21 7 49
13 63 5 14 16 54 23 90 7 36 17 69 21 74 5 6 9 22 9 36 0 14 4 30 9 36 13 12
43 123 43 154 0 14 5 28 10 31 10 6 47 137 62 222 5 29 4 37 -8 37 -8 0 -18
-4 -21 -10 -10 -16 -21 -11 -33 15 -15 33 -40 32 -90 -5z m61 -37 c-5 -38 -29
-134 -40 -163 -3 -8 -7 -23 -8 -33 -1 -11 -7 -22 -13 -26 -7 -4 -12 -18 -11
-32 1 -13 -10 -59 -25 -102 -14 -43 -26 -86 -26 -95 0 -10 -4 -22 -9 -28 -4
-5 -14 -38 -21 -74 -7 -36 -19 -77 -27 -92 -7 -15 -13 -43 -13 -63 0 -21 -7
-60 -15 -88 -8 -29 -16 -63 -17 -77 -2 -14 -6 -29 -9 -35 -3 -5 -7 -39 -8 -74
-1 -47 -6 -68 -19 -77 -9 -7 -20 -14 -23 -14 -8 0 -59 127 -59 150 0 10 -4 21
-9 24 -5 3 -14 36 -21 73 -6 37 -15 72 -19 78 -4 5 -14 37 -21 70 -8 33 -20
75 -28 94 -7 19 -14 47 -14 62 -1 16 -4 29 -8 29 -9 0 -32 81 -30 101 4 27 0
37 -17 41 -12 4 -26 31 -42 83 -13 42 -27 73 -31 68 -9 -8 -21 -51 -90 -317
-22 -87 -45 -167 -51 -177 -5 -10 -14 -40 -19 -66 -5 -27 -18 -90 -29 -141
-15 -70 -18 -99 -10 -114 8 -15 6 -25 -6 -44 -15 -23 -63 -50 -72 -41 -2 3 -8
29 -13 58 -5 30 -16 70 -26 89 -10 19 -17 49 -17 66 1 24 -4 34 -18 37 -14 4
-19 14 -19 39 0 19 -4 38 -9 44 -11 13 -36 106 -32 123 1 8 -1 17 -6 20 -17
12 -31 58 -26 84 4 20 1 27 -10 27 -16 0 -28 32 -43 111 -4 18 -11 39 -15 45
-12 14 -39 93 -44 124 -2 14 -15 52 -29 85 -41 100 -41 106 5 143 23 17 47 32
54 32 14 0 29 -68 28 -127 -1 -18 3 -33 8 -33 5 0 9 -9 9 -19 0 -11 5 -21 10
-23 6 -2 12 -28 13 -58 2 -30 8 -64 15 -76 6 -12 7 -26 2 -34 -6 -10 -3 -20
10 -32 18 -17 57 -124 65 -178 2 -14 10 -38 19 -55 21 -40 20 -54 -5 -64 -21
-7 -20 -9 12 -29 28 -17 37 -32 53 -89 24 -83 42 -107 52 -66 3 15 26 93 51
173 25 80 51 173 58 208 8 34 17 67 20 72 10 16 45 154 45 179 0 15 15 37 43
61 l42 38 -37 7 c-32 6 -36 10 -28 25 6 10 7 25 4 33 -7 19 52 87 75 87 31 0
32 -13 0 -32 l-30 -18 35 -44 c20 -24 36 -53 36 -66 0 -13 7 -31 16 -41 9 -10
25 -50 35 -90 17 -64 17 -74 4 -81 -17 -10 -10 -32 22 -71 13 -16 23 -41 23
-57 0 -16 6 -35 14 -42 20 -20 68 -186 61 -209 -4 -12 -1 -21 9 -25 8 -3 20
-21 26 -40 13 -37 30 -37 30 0 0 12 3 26 7 30 4 4 13 31 19 59 7 29 26 97 43
152 44 142 68 241 76 308 4 37 12 60 21 64 9 3 11 9 5 17 -5 6 -5 37 0 76 8
55 14 69 41 93 45 38 58 35 51 -10z m-57 -378 c-13 -50 -36 -130 -51 -180 -14
-49 -32 -112 -40 -140 -14 -48 -14 -49 -11 -10 3 22 16 83 31 135 14 52 30
109 34 125 5 17 11 37 14 45 3 8 13 42 23 75 9 33 18 55 20 50 3 -6 -7 -51
-20 -100z m-521 48 c-4 -26 -13 -59 -20 -73 -7 -14 -16 -45 -19 -70 -4 -25
-11 -54 -16 -65 -5 -11 -16 -46 -25 -79 -9 -32 -18 -56 -20 -54 -8 8 94 388
104 388 2 0 0 -21 -4 -47z m175 -49 c0 -8 -5 -12 -10 -9 -6 4 -8 11 -5 16 9
14 15 11 15 -7z m-291 -353 c-6 -18 -14 -30 -17 -27 -2 3 1 19 8 36 16 40 23
33 9 -9z"/>
<path d="M1876 2449 c-60 -53 -68 -69 -52 -100 12 -23 30 -139 26 -166 -3 -23
-2 -105 4 -373 4 -210 9 -267 20 -274 11 -8 11 -14 -4 -40 -26 -45 -31 -165
-8 -180 14 -8 25 -6 49 8 18 10 39 19 49 20 9 1 35 10 59 21 l42 20 -7 110
c-3 61 -9 114 -12 120 -9 14 -8 165 1 165 9 0 8 119 -2 145 -5 11 -5 25 -1 30
5 6 4 46 -1 89 -12 111 -2 121 51 49 24 -32 49 -63 55 -69 26 -28 148 -187
200 -260 22 -31 52 -69 68 -84 15 -16 27 -34 27 -42 0 -8 11 -25 25 -38 14
-13 25 -29 25 -36 0 -14 55 -100 68 -106 4 -2 19 -25 34 -53 23 -44 49 -68 96
-91 8 -4 30 1 50 11 21 10 43 18 50 16 6 -1 20 2 29 7 13 8 21 4 35 -13 24
-31 62 -36 104 -14 20 10 42 15 49 13 21 -8 87 64 80 87 -4 12 -1 21 9 25 17
6 76 109 76 131 0 7 3 13 8 13 4 0 16 15 26 34 15 28 27 36 60 43 22 4 48 6
56 5 8 -1 86 -2 173 -2 137 1 163 -2 203 -20 55 -24 49 -23 68 -5 13 13 16 11
26 -23 7 -20 23 -57 35 -82 13 -25 28 -66 34 -92 6 -25 22 -72 36 -103 l25
-57 37 6 c65 12 161 48 167 62 5 13 -34 94 -61 125 -7 9 -11 23 -8 31 3 8 -3
23 -15 33 -11 10 -20 23 -20 30 0 7 -24 61 -53 121 -30 60 -57 121 -60 136 -4
14 -19 41 -34 58 -14 18 -27 40 -28 50 -1 10 -9 38 -19 62 -10 23 -22 52 -26
63 -5 11 -17 40 -28 65 -11 25 -25 60 -32 78 -8 20 -24 38 -39 44 -15 6 -21
12 -13 15 16 6 15 28 -4 105 -23 97 -21 92 -48 75 -22 -15 -24 -14 -34 9 -17
35 -51 31 -121 -16 -50 -33 -61 -46 -61 -68 0 -16 -4 -32 -8 -38 -5 -5 -21
-43 -37 -84 -15 -41 -33 -82 -40 -90 -6 -8 -40 -67 -74 -130 -91 -167 -142
-239 -167 -240 -29 0 -68 -74 -53 -102 8 -15 -1 -35 -43 -102 -82 -130 -129
-196 -139 -196 -5 0 -9 14 -9 31 0 25 -6 32 -37 45 -28 12 -33 18 -22 25 8 5
22 9 32 9 20 0 23 16 5 23 -10 3 -8 12 5 36 10 17 15 35 12 41 -3 5 -7 81 -9
168 -2 112 -7 165 -17 181 -12 19 -12 24 1 34 12 9 15 38 16 132 0 66 2 167 5
225 l4 105 -32 -2 c-24 -2 -33 2 -38 17 -9 29 -49 25 -101 -11 -41 -28 -45
-34 -39 -61 18 -80 23 -162 24 -378 1 -129 4 -262 6 -295 l5 -60 -36 40 c-62
69 -108 115 -116 115 -5 0 -8 5 -8 11 0 17 -125 174 -154 193 -14 9 -26 23
-26 31 0 14 -31 62 -121 188 -19 27 -55 71 -80 97 -26 27 -49 60 -53 74 -8 34
-34 58 -55 51 -11 -3 -25 3 -36 15 -27 30 -57 24 -109 -21z m79 3 c15 -10 35
-49 35 -67 0 -8 4 -15 9 -15 5 0 19 -16 32 -35 13 -19 29 -35 35 -35 7 0 14
-7 18 -15 3 -8 19 -34 36 -58 98 -135 120 -168 120 -178 0 -6 24 -35 53 -64
28 -29 70 -79 92 -111 21 -33 53 -71 70 -86 42 -36 141 -158 149 -184 3 -11
24 -37 45 -58 l39 -38 7 85 c4 47 5 89 2 94 -3 5 -2 15 3 23 5 8 5 21 0 30 -5
9 -11 147 -14 306 -6 311 -7 333 -19 351 -7 11 48 53 71 53 15 0 23 -29 17
-64 -3 -17 -7 -97 -9 -179 -2 -81 -6 -150 -9 -153 -3 -3 -2 -17 4 -31 12 -32
12 -33 -6 -33 -17 0 -20 -23 -5 -51 6 -10 13 -91 15 -179 3 -88 6 -164 7 -168
1 -4 -5 -20 -12 -35 -12 -24 -12 -30 0 -37 14 -9 5 -14 -49 -32 -9 -2 2 -11
26 -21 38 -15 41 -19 41 -56 1 -31 -4 -43 -23 -55 -32 -21 -42 -20 -48 3 -3
14 -11 18 -25 14 -16 -4 -25 6 -47 51 -15 31 -31 56 -35 56 -10 0 -60 77 -60
93 0 7 -11 24 -25 37 -14 13 -24 29 -21 35 2 7 -9 23 -25 36 -16 13 -29 29
-29 36 0 6 -3 13 -7 15 -5 2 -25 25 -45 52 -29 38 -35 52 -27 63 9 10 8 13 -2
13 -21 1 -63 41 -95 91 -16 24 -36 51 -45 59 -40 38 -106 126 -102 137 3 7 -4
16 -14 20 -10 4 -40 31 -66 60 -48 52 -49 52 -72 35 -23 -17 -23 -17 -4 -32
17 -14 18 -21 10 -65 -5 -28 -6 -83 -2 -123 4 -39 3 -79 -2 -87 -4 -8 -3 -23
3 -34 11 -22 14 -141 3 -141 -10 0 -11 -163 -2 -170 3 -3 9 -54 12 -115 l7
-110 -47 -23 c-25 -12 -47 -21 -48 -20 -2 2 0 33 4 70 5 53 12 73 30 90 l24
21 -22 18 c-21 17 -22 24 -24 278 -1 144 -5 261 -9 261 -15 0 -8 74 8 92 13
14 14 21 5 32 -9 11 -8 15 6 21 16 6 16 8 -4 16 -18 7 -23 16 -23 46 0 21 -7
50 -14 65 -14 27 -13 29 32 68 50 43 52 43 67 32z m1629 -44 c4 -24 12 -58 19
-76 9 -25 9 -37 -1 -53 -11 -17 -9 -21 12 -31 25 -11 50 -60 38 -73 -4 -4 0
-12 8 -18 16 -13 89 -178 94 -212 2 -12 17 -40 34 -64 18 -24 32 -50 32 -58 0
-8 25 -66 55 -128 30 -62 55 -118 55 -125 0 -6 10 -20 22 -30 18 -14 20 -20
10 -33 -10 -12 -10 -16 2 -20 16 -6 66 -104 66 -130 0 -16 -10 -20 -66 -32
l-31 -6 -27 80 c-15 43 -28 98 -29 120 -1 31 -5 41 -18 41 -12 0 -23 21 -40
73 -19 57 -28 72 -44 72 -13 0 -21 -8 -23 -22 -4 -27 -1 -27 -43 -5 -28 14
-65 17 -202 19 -92 1 -172 5 -177 8 -5 3 -28 1 -50 -5 -22 -6 -45 -8 -50 -5
-5 3 -25 3 -45 -1 -38 -7 -71 -50 -126 -166 -15 -31 -39 -66 -52 -78 -15 -13
-23 -29 -20 -43 7 -43 -90 -92 -112 -57 -3 5 11 24 30 44 19 20 35 42 35 49 0
8 10 23 23 35 12 11 31 38 42 59 11 21 37 62 57 93 35 52 36 55 17 62 -19 7
-19 9 -4 38 10 20 23 30 39 30 15 0 27 9 35 26 6 14 23 41 38 60 28 38 34 47
111 188 30 53 57 94 62 91 5 -3 8 3 8 12 -2 24 38 113 51 113 5 0 7 9 4 20 -3
11 2 31 11 45 9 13 16 35 16 49 0 17 9 28 34 40 18 8 39 22 46 31 24 29 47 18
54 -27z m-807 -220 c-3 -7 -5 -2 -5 12 0 14 2 19 5 13 2 -7 2 -19 0 -25z m0
-105 c-3 -10 -5 -4 -5 12 0 17 2 24 5 18 2 -7 2 -21 0 -30z m0 -60 c-3 -10 -5
-4 -5 12 0 17 2 24 5 18 2 -7 2 -21 0 -30z m3 -75 l-1 -33 -14 25 c-10 19 -10
27 -2 32 17 11 17 11 17 -24z m-3 -100 c-3 -7 -5 -2 -5 12 0 14 2 19 5 13 2
-7 2 -19 0 -25z m0 -50 c-3 -7 -5 -2 -5 12 0 14 2 19 5 13 2 -7 2 -19 0 -25z
m10 -80 c-3 -8 -6 -5 -6 6 -1 11 2 17 5 13 3 -3 4 -12 1 -19z m0 -90 c-2 -13
-4 -5 -4 17 -1 22 1 32 4 23 2 -10 2 -28 0 -40z m-10 -90 c-3 -8 -6 -5 -6 6
-1 11 2 17 5 13 3 -3 4 -12 1 -19z m-764 -24 c-9 -23 -23 -16 -23 12 0 22 2
24 14 14 8 -6 12 -18 9 -26z"/>
<path d="M3484 2278 c-5 -7 -23 -42 -42 -78 -46 -88 -95 -160 -109 -160 -6 0
-9 -8 -6 -18 2 -10 -13 -43 -36 -79 -23 -33 -41 -64 -41 -69 0 -5 -14 -29 -30
-54 -16 -25 -30 -48 -30 -51 0 -6 -6 -6 118 -18 51 -5 99 -14 107 -21 10 -9
19 -9 35 0 14 7 44 10 78 6 32 -3 99 -3 150 2 l93 7 -35 67 c-20 37 -36 79
-36 93 0 14 -4 23 -10 20 -11 -7 -84 141 -75 155 3 6 2 10 -4 10 -6 0 -32 45
-58 100 -26 55 -51 100 -55 100 -4 0 -10 -6 -14 -12z m-26 -123 c-6 -14 -13
-23 -15 -21 -5 5 15 46 22 46 3 0 -1 -11 -7 -25z m92 -19 c0 -9 39 -98 67
-151 8 -16 26 -52 40 -80 14 -27 34 -67 45 -88 11 -21 17 -41 14 -44 -9 -9
-290 -7 -362 2 l-62 8 35 68 c19 38 39 72 44 75 17 10 51 86 45 100 -3 8 -1
14 5 14 16 0 46 38 75 93 24 46 26 48 39 30 8 -10 15 -22 15 -27z m-186 -145
c-42 -70 -54 -81 -23 -18 28 55 51 89 56 84 2 -3 -13 -32 -33 -66z m-60 -103
c-10 -20 -19 -28 -22 -20 -2 7 4 22 14 33 25 27 27 24 8 -13z"/>
<path d="M8745 2448 c-55 -41 -60 -70 -17 -92 28 -15 29 -18 35 -118 8 -113
15 -175 24 -198 3 -8 5 -32 4 -53 -2 -24 3 -45 14 -57 15 -17 15 -19 -1 -28
-15 -8 -18 -21 -16 -64 1 -29 6 -66 10 -83 6 -20 4 -41 -5 -63 -7 -18 -11 -37
-8 -42 3 -5 1 -64 -5 -132 -9 -101 -14 -125 -31 -141 -13 -12 -19 -29 -17 -45
l3 -27 95 0 c52 0 109 5 126 12 22 8 35 8 42 1 7 -7 55 -9 129 -7 145 4 272 4
423 1 63 -1 136 -2 162 -2 27 -1 63 6 80 14 18 8 44 16 57 18 16 2 32 15 44
35 23 39 16 56 -18 43 -19 -7 -25 -6 -30 10 -8 24 -30 32 -61 20 -14 -6 -34
-10 -44 -10 -10 0 -31 -5 -47 -11 -28 -11 -75 -19 -103 -17 -8 0 -136 2 -285
3 -148 1 -277 3 -285 3 -12 2 -15 18 -15 83 0 60 -4 83 -15 89 -10 6 -11 12
-3 22 6 8 9 52 7 108 -2 52 -3 126 -4 165 0 38 -6 76 -13 84 -9 11 -9 15 1 18
8 3 12 26 12 68 l0 64 178 1 c97 0 186 0 197 0 11 -1 32 -2 47 -2 15 -1 35 5
44 13 9 8 27 12 39 11 21 -3 55 32 55 58 0 16 -26 12 -41 -7 -13 -14 -15 -13
-19 13 -5 30 -34 43 -68 29 -35 -14 -300 -26 -384 -18 -52 5 -58 8 -58 28 0
12 -7 28 -16 36 -14 11 -14 13 0 21 9 5 16 17 16 28 0 17 11 18 176 19 97 1
179 3 182 5 4 2 38 -1 75 -6 57 -7 73 -6 93 6 13 9 30 16 39 16 21 0 93 42
100 58 3 8 -6 12 -26 12 -17 0 -37 7 -45 15 -18 17 -70 19 -133 4 -49 -11
-349 -13 -451 -3 -172 17 -213 15 -245 -8z m240 -23 c97 -9 407 -7 456 4 56
13 109 14 109 1 0 -5 -17 -21 -38 -35 -36 -23 -43 -25 -103 -16 -35 5 -67 7
-71 5 -4 -3 -108 -5 -231 -5 l-223 0 4 -31 c3 -23 0 -35 -14 -45 -18 -14 -18
-15 -1 -27 9 -8 17 -26 17 -43 0 -30 1 -31 67 -38 115 -12 207 -14 320 -6 74
6 110 5 115 -3 4 -7 13 -4 26 7 18 17 42 23 42 11 0 -14 -43 -64 -54 -64 -8 0
-19 7 -26 15 -10 12 -16 13 -27 4 -9 -8 -80 -11 -233 -10 l-220 1 0 -79 c0
-55 -4 -81 -12 -84 -10 -3 -10 -7 -1 -18 6 -8 12 -45 13 -84 0 -38 2 -114 3
-168 2 -54 -1 -101 -5 -103 -4 -3 -8 -12 -8 -20 0 -8 4 -13 9 -10 5 3 12 -28
16 -69 5 -62 4 -79 -11 -104 -14 -24 -15 -34 -7 -42 9 -9 16 -9 27 0 15 13
102 17 173 8 24 -3 45 -1 48 3 3 4 92 8 199 9 170 1 195 -1 200 -15 5 -13 9
-14 20 -5 10 8 16 9 21 2 4 -7 14 -5 30 5 13 9 29 13 34 10 5 -4 25 0 43 8 38
16 121 36 126 31 7 -7 -9 -42 -29 -63 -21 -24 -77 -30 -96 -11 -8 8 -17 7 -34
-3 -18 -11 -43 -13 -104 -8 -102 8 -468 6 -482 -3 -12 -7 -32 -3 -69 15 -15 7
-28 7 -42 -1 -22 -12 -202 -26 -202 -16 0 3 9 19 21 34 16 22 22 49 26 117 3
49 10 97 14 106 5 10 5 27 -1 42 -7 20 -5 35 7 61 9 19 21 35 27 35 6 0 2 7
-9 16 -11 8 -19 18 -19 22 1 4 0 12 -1 17 -14 48 -12 85 6 101 23 21 24 32 3
56 -14 14 -14 20 -4 33 9 11 9 15 1 15 -8 0 -10 8 -6 20 4 12 2 26 -3 33 -12
14 -19 62 -27 187 -10 140 -12 150 -40 150 -32 0 -32 13 2 40 29 23 55 23 228
5z m-45 -515 c0 -5 -4 -10 -10 -10 -5 0 -10 5 -10 10 0 6 5 10 10 10 6 0 10
-4 10 -10z"/>
<path d="M9966 2432 c-56 -25 -61 -29 -64 -56 -2 -17 2 -28 12 -32 9 -3 16
-16 16 -29 0 -12 8 -29 18 -38 20 -18 19 -70 -1 -95 -6 -8 -10 -57 -9 -115 2
-136 0 -367 -3 -442 -2 -41 2 -65 12 -77 13 -14 13 -17 0 -25 -8 -5 -17 -33
-21 -72 -3 -36 -12 -80 -18 -99 -11 -30 -11 -35 7 -48 11 -8 27 -13 35 -10 28
8 85 29 110 39 14 6 28 10 32 9 4 -1 18 12 32 28 23 28 25 36 20 113 -3 45 -4
93 -4 107 1 14 1 87 0 162 -1 75 1 142 5 147 11 19 38 -4 88 -72 27 -36 55
-68 63 -71 7 -3 14 -11 14 -18 0 -7 21 -33 46 -58 25 -25 53 -58 61 -73 8 -16
34 -55 59 -87 24 -32 44 -65 44 -74 0 -9 7 -19 15 -23 9 -3 25 -23 36 -44 28
-57 62 -76 104 -60 19 6 42 14 52 16 26 6 103 34 125 46 26 14 22 32 -7 27
-15 -3 -30 1 -40 13 -9 9 -27 20 -41 23 -15 4 -29 19 -38 41 -8 18 -35 54 -60
78 -25 24 -46 49 -46 56 0 7 -22 41 -48 75 -27 33 -57 76 -68 94 -10 17 -24
32 -31 32 -7 0 -13 9 -13 19 0 11 -10 28 -22 38 -36 28 -81 101 -74 118 3 8
16 19 29 24 12 5 29 16 36 25 7 9 19 16 26 16 8 0 15 3 17 8 3 6 17 15 98 58
14 8 51 38 84 67 54 48 59 56 61 100 3 37 0 49 -14 57 -12 6 -22 5 -30 -3 -10
-9 -12 -8 -9 7 3 21 -6 27 -77 50 -67 21 -169 34 -290 35 -55 1 -145 2 -199 4
-66 1 -110 -3 -130 -11z m94 -24 c8 0 71 1 140 0 69 0 136 0 150 0 49 0 194
-19 211 -29 11 -5 16 -16 13 -24 -4 -8 -2 -15 4 -15 6 0 12 4 14 10 8 23 31
-11 33 -48 2 -38 -2 -45 -60 -101 -34 -34 -67 -61 -71 -61 -5 0 -27 -14 -48
-30 -22 -17 -45 -30 -51 -30 -6 0 -26 -13 -45 -30 -19 -16 -40 -29 -46 -30 -6
0 -18 -8 -27 -17 -14 -17 -13 -21 13 -60 16 -23 26 -44 23 -47 -4 -3 0 -6 9
-6 21 0 52 -36 45 -54 -3 -8 2 -16 13 -19 10 -3 31 -24 46 -48 15 -24 44 -65
66 -92 21 -27 38 -57 38 -67 0 -10 12 -26 27 -36 36 -23 61 -52 78 -91 8 -17
23 -34 34 -38 10 -3 26 -14 36 -25 13 -14 25 -17 47 -13 55 11 26 -20 -41 -44
-73 -27 -90 -22 -115 32 -10 20 -24 39 -32 42 -8 3 -13 10 -12 17 2 6 -9 27
-25 47 -15 20 -27 38 -27 41 0 3 -13 20 -30 38 -16 18 -30 37 -30 44 0 6 -21
31 -46 56 -25 25 -52 60 -60 78 -8 17 -20 32 -27 32 -6 0 -30 26 -52 56 -22
31 -53 67 -69 79 -29 23 -29 23 -80 4 l-51 -18 -2 -148 c-1 -81 -3 -159 -4
-173 -1 -14 0 -43 3 -65 4 -24 1 -46 -6 -54 -8 -11 -8 -15 2 -18 17 -6 15 -44
-3 -70 -17 -25 -101 -70 -112 -60 -3 4 -1 18 5 31 6 13 14 52 18 86 6 52 11
63 30 72 30 14 30 24 1 43 -23 14 -23 19 -20 132 2 67 9 123 15 131 8 10 9 15
1 20 -11 7 -22 156 -13 166 3 2 3 38 0 78 -4 48 -2 80 6 93 23 38 24 92 3 111
-10 9 -19 30 -19 46 0 18 -5 28 -15 28 -8 0 -15 6 -15 13 0 17 70 46 95 39 11
-3 27 -5 35 -4z"/>
<path d="M10057 2373 c-4 -3 -7 -17 -7 -29 0 -13 -5 -35 -12 -49 -9 -19 -9
-28 0 -37 15 -15 15 -53 1 -80 -8 -15 -8 -26 1 -43 8 -15 11 -51 8 -99 -3 -64
-1 -75 12 -72 8 2 38 10 65 17 28 7 66 22 86 35 19 12 68 38 109 59 40 20 104
61 141 91 55 45 68 61 71 89 2 19 0 35 -4 35 -4 0 -10 11 -14 25 -4 18 -13 25
-31 25 -13 0 -33 5 -44 11 -31 16 -236 29 -271 17 -21 -8 -33 -7 -41 1 -12 12
-60 15 -70 4z m361 -50 c102 -25 108 -71 20 -138 -54 -40 -272 -165 -289 -165
-5 0 -9 24 -9 53 0 29 -5 58 -11 64 -8 8 -8 17 0 31 14 26 14 85 1 98 -15 15
10 60 40 71 34 13 171 6 248 -14z m-328 -64 c0 -6 -4 -7 -10 -4 -5 3 -10 11
-10 16 0 6 5 7 10 4 6 -3 10 -11 10 -16z"/>
<path d="M2540 935 l0 -265 25 0 25 0 0 138 c0 152 2 158 64 182 34 13 91 -2
100 -26 3 -9 6 -78 6 -155 l0 -139 30 0 30 0 0 139 c0 76 -5 152 -11 170 -21
59 -112 80 -177 41 -18 -11 -35 -20 -37 -20 -3 0 -5 45 -5 100 l0 100 -25 0
-25 0 0 -265z"/>
<path d="M3750 961 c0 -239 0 -240 24 -268 19 -22 32 -28 64 -28 46 0 57 7 49
30 -4 9 -19 15 -37 15 -24 0 -33 6 -40 26 -6 14 -10 124 -10 245 l0 219 -25 0
-25 0 0 -239z"/>
<path d="M5700 935 l0 -265 30 0 30 0 0 138 c0 136 1 139 26 163 31 29 95 33
121 6 15 -15 19 -40 21 -162 l3 -145 25 0 24 0 0 156 0 156 -29 29 c-36 36
-97 39 -154 9 l-37 -20 0 100 0 100 -30 0 -30 0 0 -265z"/>
<path d="M6110 1171 c0 -31 13 -41 43 -33 13 3 17 12 15 31 -2 20 -9 27 -30
29 -25 3 -28 0 -28 -27z"/>
<path d="M6290 970 c0 -185 3 -237 15 -260 26 -50 125 -66 125 -19 0 14 -7 19
-28 19 -51 0 -52 6 -52 257 l0 233 -30 0 -30 0 0 -230z"/>
<path d="M6510 1171 c0 -19 6 -30 18 -33 29 -8 42 2 42 33 0 26 -4 29 -30 29
-26 0 -30 -3 -30 -29z"/>
<path d="M7530 1171 c0 -31 13 -41 43 -33 11 3 17 14 17 33 0 26 -4 29 -30 29
-26 0 -30 -3 -30 -29z"/>
<path d="M1354 1155 c-11 -27 7 -35 82 -35 l74 0 0 -225 0 -225 25 0 25 0 0
225 0 225 74 0 c76 0 91 6 80 34 -5 14 -30 16 -180 16 -143 0 -176 -3 -180
-15z"/>
<path d="M5297 1163 c-4 -3 -7 -116 -7 -250 l0 -243 25 0 25 0 0 105 0 105 73
0 c133 0 203 59 194 163 -5 60 -41 101 -102 116 -48 12 -198 15 -208 4z m229
-76 c34 -40 32 -90 -5 -128 -27 -27 -35 -29 -105 -29 l-76 0 0 96 0 96 81 -4
c74 -3 83 -6 105 -31z"/>
<path d="M8987 1164 c-4 -4 -7 -117 -7 -251 l0 -243 30 0 30 0 -2 248 c-3 240
-4 247 -23 250 -12 2 -24 0 -28 -4z"/>
<path d="M1849 1017 c-49 -32 -72 -86 -72 -166 0 -115 43 -171 139 -186 61 -9
154 18 154 45 0 28 -14 32 -56 14 -48 -20 -119 -14 -146 13 -11 11 -23 36 -28
56 l-8 37 113 0 c137 0 149 7 134 83 -4 26 -13 56 -19 68 -32 59 -147 79 -211
36z m125 -27 c28 -10 40 -29 51 -77 l7 -33 -100 0 -100 0 8 35 c16 70 69 100
134 75z"/>
<path d="M2255 1031 c-65 -27 -101 -106 -92 -203 10 -110 66 -164 172 -162 33
0 70 6 83 13 28 15 25 47 -3 43 -89 -13 -108 -13 -136 -2 -80 34 -79 226 1
268 24 12 69 11 117 -4 31 -9 44 23 18 42 -21 15 -127 18 -160 5z"/>
<path d="M2945 1032 c-6 -4 -9 -74 -7 -185 l3 -178 27 3 27 3 5 144 5 144 38
20 c30 15 45 18 70 10 48 -13 57 -41 57 -190 l0 -133 25 0 25 0 0 145 c0 160
-8 192 -55 213 -42 19 -98 15 -137 -12 -34 -23 -35 -23 -44 -3 -10 23 -24 30
-39 19z"/>
<path d="M3403 1024 c-50 -25 -75 -74 -80 -158 -4 -60 -1 -78 19 -116 30 -57
76 -84 143 -84 106 1 155 60 155 186 0 86 -19 132 -69 165 -41 28 -120 31
-168 7z m154 -58 c45 -53 42 -179 -7 -228 -48 -47 -125 -37 -155 22 -18 34
-20 133 -4 180 22 61 121 77 166 26z"/>
<path d="M4020 1017 c-54 -36 -74 -80 -74 -162 0 -124 55 -189 159 -189 62 0
111 26 140 74 15 27 20 53 20 110 0 90 -24 144 -75 172 -50 26 -128 24 -170
-5z m159 -52 c21 -20 26 -36 29 -93 6 -110 -27 -162 -103 -162 -66 0 -96 38
-102 130 -7 106 39 167 116 156 19 -3 46 -17 60 -31z"/>
<path d="M4440 1033 c-30 -11 -70 -57 -76 -87 -6 -36 9 -82 37 -112 19 -20 19
-21 -6 -44 -30 -28 -31 -40 -6 -72 l19 -24 -34 -28 c-44 -34 -47 -80 -8 -117
22 -21 37 -24 113 -27 74 -3 95 -1 129 17 46 24 65 51 64 94 -1 53 -43 80
-148 97 -38 6 -76 18 -84 26 -13 14 -13 17 4 30 11 8 37 14 59 14 47 0 103 25
123 55 17 26 21 69 11 107 -6 24 -4 27 20 30 20 2 28 9 28 23 0 19 -7 20 -115
22 -63 1 -122 -1 -130 -4z m133 -65 c23 -27 17 -86 -10 -105 -27 -21 -100 -16
-123 7 -34 34 -22 101 23 120 34 15 90 3 110 -22z m-23 -299 c123 -26 62 -119
-71 -107 -27 3 -55 11 -64 18 -23 19 -18 56 11 79 30 24 52 26 124 10z"/>
<path d="M4720 1033 c0 -5 29 -84 64 -178 l64 -170 -18 -45 c-10 -25 -26 -62
-35 -83 l-16 -38 32 3 33 3 93 245 c51 135 92 251 93 258 0 6 -11 12 -24 12
-22 0 -29 -13 -71 -130 -26 -71 -51 -130 -55 -130 -4 0 -29 59 -55 130 -46
125 -49 130 -76 130 -16 0 -29 -3 -29 -7z"/>
<path d="M6110 855 l0 -185 25 0 25 0 0 185 0 185 -25 0 -25 0 0 -185z"/>
<path d="M6517 1034 c-4 -4 -7 -88 -7 -186 l0 -178 30 0 30 0 -2 183 c-3 175
-4 182 -23 185 -12 2 -24 0 -28 -4z"/>
<path d="M6705 1032 c-6 -4 -9 -99 -7 -260 l3 -253 27 3 c27 3 27 4 30 90 l3
88 26 -17 c15 -10 45 -17 72 -17 92 0 141 66 141 190 0 78 -16 121 -59 157
-43 36 -104 37 -153 3 l-36 -24 -11 24 c-11 25 -19 29 -36 16z m179 -42 c72
-27 85 -202 20 -259 -23 -19 -36 -22 -71 -18 -69 7 -73 15 -73 137 l0 108 43
21 c48 24 48 24 81 11z"/>
<path d="M7115 1034 c-6 -3 -8 -93 -5 -256 l5 -253 25 0 c25 0 25 2 28 87 l3
88 26 -17 c36 -24 116 -22 151 3 93 69 89 289 -8 339 -43 22 -100 19 -140 -9
-34 -23 -35 -23 -45 -3 -11 21 -23 28 -40 21z m212 -69 c40 -45 43 -163 5
-215 -28 -37 -65 -47 -115 -30 l-42 15 -3 104 c-3 112 1 124 53 147 38 17 74
10 102 -21z"/>
<path d="M7530 855 l0 -185 25 0 25 0 0 185 0 185 -25 0 -25 0 0 -185z"/>
<path d="M7724 1032 c-7 -5 -9 -63 -6 -184 l5 -178 23 0 c23 0 23 0 26 141 3
142 3 142 31 162 34 26 89 27 117 2 18 -17 20 -30 20 -162 l0 -144 28 3 27 3
3 110 c4 148 -3 192 -38 227 -38 38 -101 39 -154 3 l-37 -25 -9 25 c-10 26
-18 30 -36 17z"/>
<path d="M8169 1017 c-49 -32 -72 -86 -72 -166 0 -115 43 -171 139 -186 61 -9
154 18 154 45 0 28 -14 32 -56 14 -48 -20 -119 -14 -146 13 -11 11 -23 36 -28
56 l-8 37 113 0 c137 0 149 7 134 83 -4 26 -13 56 -19 68 -32 59 -147 79 -211
36z m125 -27 c28 -10 40 -29 51 -77 l7 -33 -100 0 -100 0 8 35 c16 70 69 100
134 75z"/>
<path d="M8528 1024 c-34 -18 -48 -43 -48 -87 0 -43 28 -69 98 -92 73 -23 95
-72 51 -116 -18 -18 -28 -20 -68 -15 -80 12 -85 12 -89 -5 -8 -39 132 -58 183
-25 34 22 57 75 49 116 -8 37 -51 75 -105 92 -23 6 -48 22 -56 34 -30 47 25
85 95 65 27 -8 34 -7 42 9 8 15 6 21 -9 30 -28 15 -111 12 -143 -6z"/>
<path d="M9185 1032 c-6 -4 -9 -74 -7 -184 l4 -178 24 0 24 0 0 138 c0 152 2
158 64 182 34 13 91 -2 100 -26 3 -9 6 -78 6 -155 l0 -139 31 0 30 0 -3 156
-3 156 -33 29 c-42 38 -103 40 -154 5 l-36 -24 -11 24 c-11 25 -19 29 -36 16z"/>
<path d="M9629 1017 c-49 -32 -72 -85 -71 -167 0 -76 21 -132 58 -157 53 -34
168 -39 209 -9 24 17 9 50 -19 41 -11 -4 -44 -9 -72 -12 -67 -7 -102 20 -115
92 -25 135 38 213 148 185 37 -9 48 -8 54 2 14 21 11 28 -17 38 -48 19 -138
12 -175 -13z"/>
<path d="M9907 734 c-4 -4 -7 -20 -7 -36 0 -25 3 -28 36 -28 34 0 35 1 32 33
-2 26 -8 33 -28 35 -14 2 -29 0 -33 -4z"/>
</g>
</svg>
